<svg width="55" height="51" viewBox="0 0 55 51" fill="none" xmlns="http://www.w3.org/2000/svg">
<path fill-rule="evenodd" clip-rule="evenodd" d="M27.4159 0C12.2783 0 0 11.7028 0 26.1309C0 37.6734 7.9052 47.4524 18.6697 50.9793C20.0153 51.1396 20.5199 50.338 20.5199 49.6968C20.5199 49.0555 20.5199 47.4524 20.5199 45.208C12.9511 46.8111 11.2691 41.6812 11.2691 41.6812C10.0917 38.6352 8.24159 37.8337 8.24159 37.8337C5.71865 36.2305 8.40979 36.2305 8.40979 36.2305C11.1009 36.3908 12.6147 38.9558 12.6147 38.9558C15.1376 42.9637 19.0061 41.8415 20.5199 41.2002C20.6881 39.4368 21.5291 38.3146 22.2018 37.6733C16.1468 37.0321 9.75535 34.7877 9.75535 24.6881C9.75535 21.8025 10.7645 19.5581 12.6147 17.6343C12.2783 16.9931 11.4373 14.2678 12.9511 10.7409C12.9511 10.7409 15.3058 10.0997 20.5199 13.4662C22.7064 12.825 25.0612 12.6647 27.4159 12.6647C29.7706 12.6647 32.1254 12.9853 34.3119 13.4662C39.526 10.0997 41.8807 10.7409 41.8807 10.7409C43.3945 14.2678 42.3853 16.9931 42.2171 17.6343C43.8991 19.3978 45.0764 21.8025 45.0764 24.6881C45.0764 34.7877 38.685 36.8718 32.63 37.513C33.6391 38.3146 34.4801 39.9177 34.4801 42.3224C34.4801 45.8493 34.4801 48.5746 34.4801 49.5364C34.4801 50.1777 34.9847 50.9792 36.3303 50.8189C47.263 47.2921 55 37.513 55 25.9706C54.8318 11.7028 42.5535 0 27.4159 0Z" fill="#231E1B"/>
</svg>