<svg width="69" height="69" viewBox="0 0 69 69" fill="none" xmlns="http://www.w3.org/2000/svg">
<path d="M34.1008 69C52.9342 69 68.2017 53.7342 68.2017 34.9029C68.2017 16.0715 52.9342 0.805664 34.1008 0.805664C15.2675 0.805664 0 16.0715 0 34.9029C0 53.7342 15.2675 69 34.1008 69Z" fill="black"/>
<path d="M19.8532 28.5972H26.3931V49.8495H19.8532V28.5972ZM23.1231 18.0878C25.2252 18.0878 26.8602 19.7226 26.8602 21.8245C26.8602 23.9263 25.2252 25.5612 23.1231 25.5612C21.021 25.5612 19.386 23.9263 19.386 21.8245C19.386 19.7226 21.021 18.0878 23.1231 18.0878Z" fill="white"/>
<path d="M30.5973 28.5971H36.9036V31.3997C37.8379 29.7649 39.94 27.8965 43.2099 27.8965C49.9834 27.8965 51.1512 32.3338 51.1512 37.9388V49.616H44.6113V39.3401C44.6113 36.7711 44.6113 33.7351 41.1078 33.7351C37.6043 33.7351 37.1372 36.304 37.1372 39.1066V49.616H30.5973V28.5971Z" fill="white"/>
</svg>
